<?xml version="1.0" encoding="UTF-8"?>
<svg id="Layer_1" data-name="Layer 1" xmlns="http://www.w3.org/2000/svg" viewBox="0 0 43.14 44">
  <defs>
    <style>
      .cls-1 {
        fill: #4e0089;
      }

      .cls-2 {
        fill: #181a20;
      }

      .cls-3 {
        fill: #8534c3;
      }
    </style>
  </defs>
  <path class="cls-1" d="M7,40.24c1.24,.9,5.79,4.21,11.26,3.71,2.94-.27,4-1.88,7.63-2.02,3.9-.14,4.83,1.44,7.38,1.1,4.36-.57,7.36-5.95,8.47-9.17,4.39-15.04-3.12-18.24-5.02-21.01-1.19-1.74-2.37-3.08-3.24-4.01-.48-3.12-.99-7.77-4.39-8.54-3.23,0-4.38,2.3-4.93,3.72-.14,.27-.36,.36-.61,.21-3.54-1.9-8.06-1.57-11.67,.02-.19-.32,1.51-3.9-1.01-4.24-1.47-.2-4.26,1.05-5.86,1.87-.96,.5-1.82,1.18-2.49,2.03C.39,6.63,.43,9.79,1.59,14.02-1.85,24.93,.44,35.46,7,40.24Z"/>
  <path class="cls-3" d="M10.83,37.09c1.13,.86,5.25,4.02,10.22,3.55,2.67-.26,3.63-1.8,6.93-1.92,3.54-.14,4.38,1.37,6.7,1.05,3.96-.54,6.68-5.68,7.68-8.75,2.84-8.73-2.83-17.42-4.55-20.06-1.08-1.66-2.15-2.94-2.94-3.83-.44-2.98-2.22-5.97-5.31-6.71-1.55-.41-2.65,.75-3.14,2.1-.12,.25-.32,.34-.56,.2-4.1-1.52-7.32-1.5-10.58,.02-.17-.3-1.36-2.37-3.65-2.7-1.83-.26-3.24,.76-3.65,1.06-3.12,2.88-3.29,6.21-2.04,10.96-3.12,10.41-1.05,20.47,4.9,25.03h0Z"/>
  <path class="cls-2" d="M20.59,19.75c.06,.04,.13,.07,.2,.1,1.38,.68,3.1,.63,4.43-.13,.09-.05,.18-.11,.2-.21,.05-.18-.16-.31-.34-.39-1.39-.6-2.57-1.65-3.34-2.96-.14-.24-.27-.51-.21-.78,.06-.29,.33-.48,.58-.63,1.13-.68,2.44-1.05,3.75-1.11,.66-.03,1.33,.02,1.97,.15,.32,.06,.64,.15,.96,.26,.16,.05,.31,.11,.46,.17,.1,.04,.3,.09,.36,.19,.06,.1,0,.3,0,.41-.01,.15-.04,.3-.06,.45-.05,.3-.13,.6-.23,.88-.2,.58-.49,1.12-.85,1.61-.36,.49-.81,.92-1.3,1.27-.14,.09-.29,.26-.2,.4,.03,.05,.09,.08,.14,.1,1.45,.62,3.26,.26,4.36-.86,.07-.08,.16-.16,.26-.17,.13,0,.24,.12,.26,.25,.01,.13-.05,.26-.13,.37-.36,.5-1.03,.64-1.51,1.03-.72,.59-.87,1.61-1.02,2.52-.31,1.84-.88,3.67-1.95,5.19-.24,.34-.52,.68-.9,.83-.73,.3-1.55-.14-2.12-.68-2.43-2.32-2.54-6.36-4.99-8.65,.43-.05,.82,.17,1.21,.37h0Z"/>
  <path class="cls-3" d="M25.47,22.71c0-.11-.36-.42-.45-.51-.18-.18-.38-.34-.61-.45-.46-.21-1.1-.21-1.42,.24-.19,.26-.21,.61-.16,.93,.26,1.52,1.06,3.31,2.45,4.09,.81,.46,1.58-.03,2.05-.71,.79-1.13,1.04-2.6,.47-3.88-.27-.61-.78-1.02-1.48-.83-.48,.14-.85,.61-.86,1.12h0Z"/>
  <path class="cls-2" d="M8.3,3.58c.28-.46,.65-.87,1.16-1.04,.5-.16,1.05-.06,1.52,.18,.52,.27,1.72,1.02,1.25,1.73-.15,.23-.39,.37-.62,.52-1.31,.85-2.34,2.12-2.89,3.58-.04,.1-.07,.2-.14,.27-.07,.07-.19,.11-.28,.06-.06-.03-.09-.09-.13-.15-.83-1.59-.8-3.63,.14-5.16Z"/>
  <path class="cls-2" d="M21.4,12.08c0,.61-.15,1.18-.45,1.71-.74,1.31-2.27,1.56-3.39,.56-.7-.63-1.03-1.45-1.11-2.36-.06-.65,.03-1.29,.29-1.9,.37-.87,1.01-1.39,1.96-1.47,.89-.07,1.56,.36,2.05,1.07,.49,.72,.67,1.53,.66,2.39h0Z"/>
  <path class="cls-2" d="M34.1,10.88c.08,.86,0,1.46-.25,2.04-.57,1.29-2.06,1.68-3.19,.83-1.31-.98-1.8-3.18-1.05-4.63,.68-1.31,2.14-1.6,3.26-.63,.8,.69,1.12,1.62,1.23,2.39Z"/>
  <path class="cls-3" d="M18.54,10.72c.09-.47-.1-.9-.42-.96s-.65,.28-.74,.75,.1,.9,.42,.96,.65-.28,.74-.75Z"/>
  <path class="cls-3" d="M31.17,10.17c-.05,.53-.35,.93-.68,.9-.32-.03-.54-.48-.49-1.01,.05-.53,.35-.93,.68-.9,.32,.03,.54,.48,.49,1.01Z"/>
  <path class="cls-2" d="M32.85,5.31c-.3-1.52-1.58-3.64-3.64-3.52-.02,0-.05,0-.07,.01-1.15,.28-1.5,1.15-1.28,1.66,.03,.06,.09,.11,.15,.13,1.03,.37,3.25,1.38,4.41,2.02,.21,.12,.46-.06,.42-.3h0Z"/>
</svg>