<svg width="203" height="33" viewBox="0 0 203 33" fill="none" xmlns="http://www.w3.org/2000/svg">
<path d="M154.228 9.884C153.148 9.884 152.26 9.572 151.564 8.948C150.892 8.3 150.556 7.508 150.556 6.572C150.556 5.612 150.892 4.82 151.564 4.196C152.26 3.548 153.148 3.224 154.228 3.224C155.284 3.224 156.148 3.548 156.82 4.196C157.516 4.82 157.864 5.612 157.864 6.572C157.864 7.508 157.516 8.3 156.82 8.948C156.148 9.572 155.284 9.884 154.228 9.884Z" fill="white"/>
<path fill-rule="evenodd" clip-rule="evenodd" d="M151.13 11.0946V28.224H157.286V11.0868C156.372 11.6344 155.328 11.884 154.228 11.884C153.115 11.884 152.059 11.6371 151.13 11.0946ZM151.13 8.4448L151.13 8.136H157.286V8.42234C157.153 8.60699 156.998 8.78221 156.82 8.948C156.148 9.572 155.284 9.884 154.228 9.884C153.148 9.884 152.26 9.572 151.564 8.948C151.399 8.78894 151.254 8.62121 151.13 8.4448ZM181.973 12.708C181.205 14.268 180.821 16.08 180.821 18.144C180.821 20.208 181.205 22.032 181.973 23.616C182.765 25.176 183.833 26.388 185.177 27.252C186.521 28.092 188.021 28.512 189.677 28.512C191.093 28.512 192.329 28.224 193.385 27.648C194.465 27.072 195.293 26.304 195.869 25.344V28.224H202.025V1.584H195.869V10.908C195.245 9.972 194.381 9.228 193.277 8.676C192.197 8.124 190.997 7.848 189.677 7.848C188.021 7.848 186.521 8.268 185.177 9.108C183.833 9.948 182.765 11.148 181.973 12.708ZM194.573 14.544C195.437 15.432 195.869 16.644 195.869 18.18C195.869 19.716 195.437 20.928 194.573 21.816C193.733 22.704 192.701 23.148 191.477 23.148C190.253 23.148 189.209 22.704 188.345 21.816C187.505 20.904 187.085 19.68 187.085 18.144C187.085 16.608 187.505 15.408 188.345 14.544C189.209 13.656 190.253 13.212 191.477 13.212C192.701 13.212 193.733 13.656 194.573 14.544ZM172.007 7.92C174.359 7.92 176.231 8.688 177.623 10.224C179.039 11.736 179.747 13.824 179.747 16.488V28.224H173.627V17.316C173.627 15.972 173.279 14.928 172.583 14.184C171.887 13.44 170.951 13.068 169.775 13.068C168.599 13.068 167.663 13.44 166.967 14.184C166.271 14.928 165.923 15.972 165.923 17.316V28.224H159.767V8.136H165.923V10.8C166.547 9.912 167.387 9.216 168.443 8.712C169.499 8.184 170.687 7.92 172.007 7.92Z" fill="white"/>
<path fill-rule="evenodd" clip-rule="evenodd" d="M71.8844 10.5455C71.7934 10.4356 71.699 10.3284 71.6012 10.224C70.2092 8.688 68.3372 7.92 65.9852 7.92C64.6652 7.92 63.4772 8.184 62.4212 8.712C61.3652 9.216 60.5252 9.912 59.9012 10.8V8.136H53.7452V28.224H59.9012V17.316C59.9012 15.972 60.2492 14.928 60.9452 14.184C61.6412 13.44 62.5772 13.068 63.7532 13.068C64.9292 13.068 65.8652 13.44 66.5612 14.184C67.2572 14.928 67.6052 15.972 67.6052 17.316V28.224H73.6563C72.9296 27.4609 72.2906 26.6078 71.7428 25.6708L71.7312 25.6509L71.7197 25.6308C70.436 23.3757 69.864 20.8476 69.864 18.18C69.864 15.5137 70.4582 12.9892 71.7721 10.7367C71.8091 10.6726 71.8465 10.6088 71.8844 10.5455ZM25.488 28.224L30.924 8.136H25.128L22.32 22.428L18.9 8.136H12.384L9 22.5L6.156 8.136H0L5.472 28.224H12.24L15.516 15.192L18.684 28.224H25.488ZM31.2196 12.708C30.4516 14.268 30.0676 16.08 30.0676 18.144C30.0676 20.208 30.4516 22.032 31.2196 23.616C32.0116 25.176 33.0796 26.388 34.4236 27.252C35.7676 28.092 37.2556 28.512 38.8876 28.512C40.3036 28.512 41.5396 28.224 42.5956 27.648C43.6756 27.072 44.5156 26.316 45.1156 25.38V28.224H51.2716V8.136H45.1156V10.98C44.5396 10.044 43.7116 9.288 42.6316 8.712C41.5756 8.136 40.3396 7.848 38.9236 7.848C37.2676 7.848 35.7676 8.268 34.4236 9.108C33.0796 9.948 32.0116 11.148 31.2196 12.708ZM43.8196 14.544C44.6836 15.432 45.1156 16.644 45.1156 18.18C45.1156 19.716 44.6836 20.928 43.8196 21.816C42.9796 22.704 41.9476 23.148 40.7236 23.148C39.4996 23.148 38.4556 22.704 37.5916 21.816C36.7516 20.904 36.3316 19.68 36.3316 18.144C36.3316 16.608 36.7516 15.408 37.5916 14.544C38.4556 13.656 39.4996 13.212 40.7236 13.212C41.9476 13.212 42.9796 13.656 43.8196 14.544Z" fill="white"/>
<path d="M105.856 18.144C105.856 16.08 106.24 14.268 107.008 12.708C107.8 11.148 108.868 9.94799 110.212 9.10799C111.556 8.26799 113.056 7.84799 114.712 7.84799C116.128 7.84799 117.364 8.13599 118.42 8.71199C119.5 9.28799 120.328 10.044 120.904 10.98V8.13599H127.06V28.224H120.904V25.38C120.304 26.316 119.464 27.072 118.384 27.648C117.328 28.224 116.092 28.512 114.676 28.512C113.044 28.512 111.556 28.092 110.212 27.252C108.868 26.388 107.8 25.176 107.008 23.616C106.24 22.032 105.856 20.208 105.856 18.144ZM120.904 18.18C120.904 16.644 120.472 15.432 119.608 14.544C118.768 13.656 117.736 13.212 116.512 13.212C115.288 13.212 114.244 13.656 113.38 14.544C112.54 15.408 112.12 16.608 112.12 18.144C112.12 19.68 112.54 20.904 113.38 21.816C114.244 22.704 115.288 23.148 116.512 23.148C117.736 23.148 118.768 22.704 119.608 21.816C120.472 20.928 120.904 19.716 120.904 18.18Z" fill="white"/>
<path fill-rule="evenodd" clip-rule="evenodd" d="M106.11 8.7025C105.418 9.49019 104.827 10.377 104.333 11.3499L104.325 11.3664L104.317 11.3829C104.02 11.9847 103.772 12.607 103.569 13.248H102.798V28.224H96.6419V13.248H94.4099V8.136H96.6419V7.56C96.6419 5.088 97.3499 3.216 98.7659 1.944C100.182 0.648 102.258 0 104.994 0C105.45 0 105.786 0.0119998 106.002 0.0359995V5.256C104.826 5.184 103.998 5.352 103.518 5.76C103.038 6.168 102.798 6.9 102.798 7.956V8.136H106.11V8.7025ZM78.904 27.252C80.488 28.092 82.264 28.512 84.232 28.512C86.2 28.512 87.976 28.092 89.56 27.252C91.168 26.412 92.428 25.212 93.34 23.652C94.276 22.068 94.744 20.244 94.744 18.18C94.744 16.116 94.288 14.304 93.376 12.744C92.464 11.16 91.216 9.948 89.632 9.108C88.048 8.268 86.272 7.848 84.304 7.848C82.336 7.848 80.56 8.268 78.976 9.108C77.392 9.948 76.144 11.16 75.232 12.744C74.32 14.304 73.864 16.116 73.864 18.18C73.864 20.268 74.308 22.092 75.196 23.652C76.108 25.212 77.344 26.412 78.904 27.252ZM87.22 21.888C86.404 22.752 85.408 23.184 84.232 23.184C83.056 23.184 82.072 22.752 81.28 21.888C80.512 21.024 80.128 19.788 80.128 18.18C80.128 16.548 80.524 15.312 81.316 14.472C82.108 13.608 83.104 13.176 84.304 13.176C85.48 13.176 86.464 13.608 87.256 14.472C88.072 15.336 88.48 16.572 88.48 18.18C88.48 19.788 88.06 21.024 87.22 21.888Z" fill="white"/>
<path d="M142.132 28.224L136.012 19.8V28.224H129.856C129.856 20.8907 129.856 13.5573 129.856 6.224C129.856 4.67733 129.856 3.13067 129.856 1.584H136.012V16.308L142.096 8.136H149.692L141.34 18.216L149.764 28.224H142.132Z" fill="white"/>
</svg>
