<svg width="52" height="59" viewBox="0 0 52 59" fill="none" xmlns="http://www.w3.org/2000/svg">
<g clip-path="url(#clip0_886_46)">
<path d="M51.9082 37.1087C51.8207 33.5115 50.9352 26.3194 45.714 18.7468C47.837 19.5034 48.0141 19.7877 48.0141 19.7877C48.0141 19.7877 46.0682 14.8653 40.847 9.18642H42.5568C42.5568 9.18642 38.1927 4.07605 33.6799 6.25184C33.4153 6.25184 29.2764 6.68481 27.1883 6.58641C26.3968 6.54923 25.6053 6.55142 24.8139 6.59078C22.7236 6.69574 18.5847 6.27589 18.3201 6.27589C13.8073 4.09792 9.44321 9.21048 9.44321 9.21048H11.153C5.9318 14.8894 3.98587 19.8117 3.98587 19.8117C3.98587 19.8117 4.16297 19.5274 6.286 18.7708C1.06479 26.3435 0.181471 33.5378 0.0918274 37.1349C0.800233 34.3906 2.1274 33.3497 2.1274 33.3497C1.1282 37.3471 1.48677 40.3997 1.9503 42.3415C3.8044 50.0957 11.2273 56.1704 21.1078 58.4468C24.3263 59.1881 27.6781 59.188 30.8965 58.4446C40.7748 56.1616 48.1956 50.0694 50.0497 42.3175C50.5132 40.3757 50.8718 37.323 49.8726 33.3257C49.8726 33.3257 51.1998 34.3666 51.9082 37.1109V37.1087Z" fill="#734D15"/>
<path d="M5.72846 21.9154C5.72846 21.9154 0.491943 15.8581 0.491943 7.66885C0.491943 -0.520436 7.74654 -3.26915 18.6306 6.07035C29.5147 15.4098 5.72846 21.9154 5.72846 21.9154Z" fill="#926A15"/>
<path d="M9.82585 15.4995C12.8797 15.4995 15.3553 13.0235 15.3553 9.96928C15.3553 6.91502 12.8797 4.43906 9.82585 4.43906C6.772 4.43906 4.29636 6.91502 4.29636 9.96928C4.29636 13.0235 6.772 15.4995 9.82585 15.4995Z" fill="#382738"/>
<path d="M46.2693 21.9154C46.2693 21.9154 51.508 15.8581 51.508 7.66885C51.508 -0.518242 44.2513 -3.26914 33.3694 6.07036C22.4853 15.4099 46.2715 21.9154 46.2715 21.9154H46.2693Z" fill="#926A15"/>
<path d="M42.172 15.4995C45.2258 15.4995 47.7014 13.0235 47.7014 9.96928C47.7014 6.91502 45.2258 4.43906 42.172 4.43906C39.1181 4.43906 36.6425 6.91502 36.6425 9.96928C36.6425 13.0235 39.1181 15.4995 42.172 15.4995Z" fill="#382738"/>
<path d="M45.7293 18.5653L47.9419 19.5122C47.9419 19.5122 44.6688 12.6021 40.9519 9.1952H42.5436C42.5436 9.1952 41.1596 6.69577 36.8523 5.53244C37.6176 4.15043 39.7122 2.66564 41.9249 1.81282L40.5081 1.52854C40.5081 1.52854 41.9249 -0.0808849 46.7022 0.297418C41.481 -0.459188 37.7663 -0.174914 33.7826 6.07037H18.2152C14.2337 -0.174914 10.5167 -0.459188 5.2955 0.297418C10.0729 -0.0808849 11.4897 1.52854 11.4897 1.52854L10.0729 1.81282C12.2855 2.66564 14.3801 4.15043 15.1454 5.53244C10.8381 6.69577 9.45411 9.1952 9.45411 9.1952H11.0458C7.32889 12.6021 4.05579 19.5122 4.05579 19.5122L6.26847 18.5653C0.0764821 25.6634 -0.367364 39.5775 0.16394 36.9272C0.695243 34.2769 2.19951 32.9518 2.10987 33.236C2.02241 33.5203 1.75566 34.9395 1.75566 34.9395C1.75566 34.9395 3.08283 34.0867 4.32254 36.1706C6.79977 55.6675 25.9989 55.9408 25.9989 55.9408C25.9989 55.9408 45.198 55.6696 47.6752 36.1706C48.9149 34.0889 50.2421 34.9395 50.2421 34.9395C50.2421 34.9395 49.9775 33.5203 49.8879 33.236C49.8004 32.9518 51.3047 34.2769 51.8338 36.9272C52.3651 39.5775 51.9212 25.6634 45.7293 18.5653Z" fill="#CE9841"/>
<path d="M25.9989 43.9488C24.4946 43.9488 21.0291 43.4065 18.0206 37.8303C19.6648 46.3695 25.4807 46.3913 25.9989 46.3913C26.5171 46.3913 32.333 46.3695 33.9772 37.8303C30.9687 43.4065 27.5032 43.9488 25.9989 43.9488Z" fill="#734D15"/>
<path d="M34.9917 31.1936C34.1084 35.1669 30.6713 38.0927 26.0011 38.108C21.3287 38.0949 17.8916 35.1669 17.0105 31.1936C17.0105 36.6626 18.5956 43.8985 25.9683 43.9422C25.9792 43.9422 25.9902 43.9422 26.0011 43.9422C26.012 43.9422 26.023 43.9422 26.0339 43.9422C33.4065 43.8963 34.9917 36.6604 34.9917 31.1914V31.1936Z" fill="#382738"/>
<path d="M34.9677 30.1724C34.6943 28.8823 33.6995 27.6555 31.3097 27.1241C31.3097 28.5411 30.5139 32.1164 26.0011 32.3198C21.4883 32.1164 20.6924 28.5411 20.6924 27.1241C18.3026 27.6555 17.3078 28.8823 17.0345 30.1724C16.8946 30.8284 16.9711 31.5129 17.2094 32.1405C19.562 38.3464 26.0011 38.108 26.0011 38.108C26.0011 38.108 32.4401 38.3442 34.7927 32.1405C35.0311 31.5129 35.1076 30.8284 34.9677 30.1724Z" fill="#A37B2B"/>
<path d="M31.3076 27.0345C31.3076 27.0345 31.3076 30.5857 27.9995 31.8562C26.7161 32.3482 25.2818 32.3482 23.9983 31.8562C20.6902 30.5857 20.6902 27.0345 20.6902 27.0345C20.6902 27.0345 16.2671 28.1847 16.9733 31.3707C19.1444 37.229 25.9989 37.3492 25.9989 37.3492C25.9989 37.3492 32.8534 37.2312 35.0245 31.3707C35.7329 28.1847 31.3076 27.0345 31.3076 27.0345Z" fill="#FDC541"/>
<path d="M39.5854 24.734C39.5854 24.734 39.7625 20.1332 36.9311 19.5121C34.808 19.5121 34.0996 21.6355 34.0996 21.6355L34.1871 21.8126L39.5854 24.734Z" fill="#A6761A"/>
<path d="M33.037 24.9112C33.037 24.9112 35.9581 22.5211 39.5854 24.734C39.5854 22.0794 37.9041 20.459 36.3123 20.459C34.7206 20.459 33.0392 21.7251 33.0392 24.9112H33.037Z" fill="#211B22"/>
<path d="M37.329 23.0525C37.5983 23.0525 37.8166 22.8341 37.8166 22.5648C37.8166 22.2955 37.5983 22.0772 37.329 22.0772C37.0597 22.0772 36.8414 22.2955 36.8414 22.5648C36.8414 22.8341 37.0597 23.0525 37.329 23.0525Z" fill="#F2F4F5"/>
<path d="M12.4146 24.734C12.4146 24.734 12.2375 20.1332 15.0689 19.5121C17.1919 19.5121 17.9003 21.6355 17.9003 21.6355L17.8129 21.8126L12.4146 24.734Z" fill="#A6761A"/>
<path d="M18.963 24.9112C18.963 24.9112 16.0419 22.5211 12.4146 24.734C12.4146 22.0794 14.096 20.459 15.6877 20.459C17.2794 20.459 18.9608 21.7251 18.9608 24.9112H18.963Z" fill="#211B22"/>
<path d="M14.671 23.0525C14.9403 23.0525 15.1586 22.8341 15.1586 22.5648C15.1586 22.2955 14.9403 22.0772 14.671 22.0772C14.4017 22.0772 14.1834 22.2955 14.1834 22.5648C14.1834 22.8341 14.4017 23.0525 14.671 23.0525Z" fill="#F2F4F5"/>
<path d="M28.8282 40.8939C27.794 39.5884 26.1979 39.6103 25.9989 39.6169C25.7999 39.6103 24.2038 39.5884 23.1697 40.8939C22.3672 41.9086 22.4394 43.05 22.4613 43.3146C22.9226 43.5355 23.5479 43.7782 24.3088 43.9313C24.956 44.0603 25.5288 44.0931 25.9902 44.0844C25.9902 44.0844 25.9945 44.0844 25.9967 44.0844C25.9967 44.0844 26.0011 44.0844 26.0033 44.0844C26.4646 44.0909 27.0375 44.0603 27.6847 43.9313C28.4477 43.7782 29.0709 43.5355 29.5322 43.3146C29.5562 43.05 29.6284 41.9086 28.8238 40.8939H28.8282Z" fill="#FDC541"/>
<path d="M22.3454 17.0674C22.3454 17.0674 12.443 8.35767 26.528 0.675705C26.0164 3.32164 26.3575 5.3706 26.3575 5.3706C26.3575 5.3706 27.5535 2.46882 30.2843 1.61381C29.5169 3.57749 29.6874 4.85891 29.6874 4.85891C29.6874 4.85891 32.4183 2.38354 36.2598 3.49221C33.8701 4.17446 33.6995 4.68834 33.6995 4.68834L36.7737 5.62645C36.7737 5.62645 30.9687 6.7373 25.3342 13.3959C24.1382 11.3469 24.4815 8.27238 24.4815 8.27238C24.4815 8.27238 19.444 9.21049 22.3475 17.0674H22.3454Z" fill="#FDC541"/>
<path d="M26.0142 25.3726C26.0142 25.3726 26.0055 25.3726 26.0011 25.3726C25.9967 25.3726 25.9924 25.3726 25.988 25.3726C22.8089 25.3791 21.4205 26.5184 20.9701 28.0338C20.7187 28.8844 20.8105 29.7963 21.1363 30.6207C22.3585 33.7149 25.7584 33.7324 26.0011 33.728C26.2438 33.7302 29.6437 33.7149 30.8659 30.6207C31.1917 29.7963 31.2835 28.8844 31.0321 28.0338C30.5839 26.5184 29.1955 25.3791 26.0142 25.3726Z" fill="#2C252B"/>
<path d="M26.0142 24.1414C26.0142 24.1414 26.0055 24.1414 26.0011 24.1414C25.9967 24.1414 25.9923 24.1414 25.988 24.1414C23.1281 24.148 21.8162 25.0358 21.2325 26.0657C20.5853 27.2094 20.8083 28.6373 21.6719 29.6279C23.1696 31.3467 25.789 31.3532 26.0011 31.3489C26.2132 31.3511 28.8325 31.3445 30.3302 29.6279C31.1939 28.6373 31.4169 27.2094 30.7697 26.0657C30.1859 25.0336 28.8741 24.148 26.0142 24.1414Z" fill="#201B23"/>
<path d="M29.9148 26.385C29.9017 26.361 29.882 26.3413 29.858 26.326C29.2414 25.9564 28.5417 25.3835 25.9989 25.3835C23.7644 25.3835 22.7564 25.9542 22.1399 26.326C22.1158 26.3391 22.0961 26.361 22.083 26.385C21.7638 26.9601 21.9496 27.2947 22.1748 27.4784C22.3432 27.6161 22.5618 27.6752 22.7783 27.6752H29.2217C29.4382 27.6752 29.6568 27.6161 29.8252 27.4784C30.0504 27.2947 30.2362 26.9601 29.917 26.385H29.9148Z" fill="#3F3B3B"/>
<path d="M30.1794 26.4572C29.7946 26.1248 28.5505 25.3747 25.9989 25.3747C23.4474 25.3747 22.2033 26.1248 21.8185 26.4572C21.6938 26.5643 21.6392 26.748 21.7179 26.8923C21.8053 27.0541 21.9781 27.0541 22.1027 27.0541C23.5545 26.1182 25.9967 26.0854 25.9967 26.0854C25.9967 26.0854 28.3319 26.1182 29.8908 27.0541C30.0176 27.0541 30.1881 27.0541 30.2756 26.8923C30.3543 26.7458 30.3018 26.5643 30.175 26.4572H30.1794Z" fill="#C0BEBA"/>
<path d="M45.1412 25.9717C45.1412 25.9717 43.7243 26.5906 38.7699 26.5906C37.1782 26.5906 36.0259 27.8304 36.0259 27.8304C36.0259 27.8304 37.176 27.2991 38.6802 27.2991C41.7762 27.2991 42.3972 27.2116 42.3972 27.2116L40.0971 28.2743C40.0971 28.2743 43.7243 28.3618 45.1412 25.9739V25.9717Z" fill="#FDC541"/>
<path d="M6.85666 25.9717C6.85666 25.9717 8.27347 26.5906 13.2279 26.5906C14.8197 26.5906 15.9719 27.8304 15.9719 27.8304C15.9719 27.8304 14.8218 27.2991 13.3176 27.2991C10.2216 27.2991 9.60064 27.2116 9.60064 27.2116L11.9008 28.2743C11.9008 28.2743 8.27347 28.3618 6.85666 25.9739V25.9717Z" fill="#FDC541"/>
</g>
<defs>
<clipPath id="clip0_886_46">
<rect width="52" height="59" fill="white"/>
</clipPath>
</defs>
</svg>
