<svg width="95" height="21" viewBox="0 0 95 21" fill="none" xmlns="http://www.w3.org/2000/svg">
<path d="M5.52705 20.6567C5.31171 20.6567 5.11873 20.6032 4.94534 20.4947C4.77195 20.3863 4.64469 20.2004 4.56219 19.9342C3.78611 17.1751 3.06037 14.3583 2.38358 11.4838C1.70678 8.60924 1.0971 5.684 0.551746 2.70946C0.502804 2.37708 0.526576 2.11089 0.625858 1.91231C0.72514 1.71373 0.922307 1.61373 1.22015 1.61373H5.30472C5.60116 1.61373 5.83748 1.67992 6.00948 1.81372C6.18287 1.94752 6.27796 2.12216 6.29474 2.33765C6.59119 4.74742 6.94217 7.09522 7.34629 9.37964C7.75041 11.6655 8.21606 13.8879 8.74463 16.0484H8.27479C8.83553 13.8879 9.33054 11.6655 9.75983 9.37964C10.1891 7.09522 10.5597 4.74742 10.8729 2.33765C10.9554 1.85597 11.2938 1.61514 11.8881 1.61514H15.7252C15.9727 1.61514 16.1992 1.67429 16.4062 1.78978C16.6117 1.90668 16.7236 2.10526 16.7404 2.38835C17.0536 4.78122 17.4255 7.11634 17.8534 9.39372C18.2827 11.6711 18.7694 13.8893 19.3133 16.0498H18.8672C19.3958 13.9062 19.8657 11.6965 20.2782 9.41907C20.6907 7.14169 21.0291 4.80798 21.2934 2.4137C21.3255 2.08132 21.4458 1.86583 21.6527 1.76584C21.8583 1.66584 22.0694 1.61655 22.2834 1.61655H26.0212C26.3512 1.61655 26.5651 1.71654 26.6644 1.91513C26.7637 2.11371 26.7721 2.36441 26.6896 2.66299C26.1456 5.67133 25.5387 8.6177 24.8703 11.5007C24.2019 14.3837 23.4636 17.2061 22.6553 19.9638C22.5896 20.2299 22.4694 20.413 22.296 20.5116C22.1226 20.6102 21.9282 20.6609 21.7143 20.6609H17.0858C16.8872 20.6609 16.6984 20.6116 16.5166 20.5116C16.3348 20.4116 16.2034 20.2215 16.1209 19.9384C15.5266 17.7779 14.9952 15.5639 14.524 13.295C14.0541 11.0261 13.6458 8.70361 13.299 6.32764H13.9674C13.6207 8.72051 13.2081 11.0556 12.7299 13.333C12.2517 15.6104 11.7063 17.8202 11.0966 19.9638C11.0309 20.2299 10.9149 20.413 10.7499 20.5116C10.5849 20.6116 10.3863 20.6609 10.1556 20.6609H5.52705V20.6567Z" fill="white"/>
<path d="M34.6587 20.906C33.3876 20.906 32.2242 20.706 31.1685 20.3074C30.1127 19.9088 29.201 19.3441 28.4333 18.6117C27.6656 17.8807 27.0755 17.016 26.663 16.0188C26.2505 15.0217 26.0449 13.9245 26.0449 12.7288C26.0449 11.5331 26.2463 10.5021 26.6518 9.53738C27.0559 8.57403 27.6335 7.75153 28.3844 7.06986C29.1353 6.3882 30.0428 5.86568 31.1069 5.4995C32.1711 5.13473 33.3555 4.95163 34.6587 4.95163C36.408 4.95163 37.9253 5.27134 39.2131 5.91075C40.4996 6.55017 41.498 7.45577 42.2084 8.62755C42.9173 9.79934 43.2725 11.1669 43.2725 12.7288C43.2725 13.9259 43.0656 15.0217 42.653 16.0188C42.2405 17.016 41.6504 17.8807 40.8827 18.6117C40.1151 19.3426 39.2033 19.9074 38.1476 20.3074C37.0918 20.706 35.9284 20.906 34.6573 20.906H34.6587ZM34.6587 16.2935C35.2362 16.2935 35.7438 16.1442 36.1815 15.8442C36.6178 15.5456 36.9562 15.1301 37.1967 14.5978C37.4358 14.0668 37.5561 13.4513 37.5561 12.7528C37.5561 11.7556 37.3044 10.9754 36.801 10.4092C36.2976 9.84441 35.5844 9.56132 34.6601 9.56132C34.0658 9.56132 33.5498 9.68667 33.1136 9.93596C32.6759 10.1852 32.3417 10.5514 32.1109 11.0331C31.8802 11.5148 31.7642 12.088 31.7642 12.7528C31.7642 13.4513 31.883 14.0696 32.1235 14.6104C32.3626 15.1513 32.701 15.5667 33.1387 15.8569C33.5764 16.1484 34.0826 16.2935 34.6615 16.2935H34.6587Z" fill="white"/>
<path d="M50.0782 19.7342C50.0782 20.3497 49.7734 20.6567 49.1623 20.6567H45.3015C45.0051 20.6567 44.7729 20.5736 44.6079 20.4074C44.4429 20.2412 44.3604 20.0173 44.3604 19.7342V1.13769C44.3604 0.523628 44.6737 0.215189 45.3015 0.215189H49.1623C49.4588 0.215189 49.6853 0.294059 49.8433 0.451799C49.9999 0.60954 50.0782 0.8377 50.0782 1.13769V19.7342ZM49.7063 17.2413L49.9049 10.112L54.1376 5.67414C54.3194 5.49105 54.497 5.36711 54.6704 5.29951C54.8438 5.23331 55.0452 5.19951 55.2773 5.19951H59.6835C60.096 5.19951 60.3603 5.33331 60.4749 5.59809C60.5896 5.86428 60.4749 6.17976 60.1281 6.54594L53.7181 13.2767L53.2231 13.526L49.7091 17.2399L49.7063 17.2413ZM55.1766 11.1091C55.3905 11.9908 55.7122 12.726 56.1415 13.3147C56.5708 13.9048 57.0825 14.3541 57.6754 14.6611C58.2697 14.9682 58.913 15.1386 59.6065 15.1724C59.8862 15.1724 60.089 15.2682 60.2134 15.4597C60.3365 15.6512 60.3994 15.8794 60.3994 16.1456V19.8356C60.3994 20.1511 60.3127 20.3722 60.1393 20.4961C59.9659 20.6201 59.731 20.6834 59.4346 20.6834C58.3285 20.6665 57.3259 20.4961 56.4267 20.1722C55.5276 19.8483 54.7473 19.4159 54.0873 18.8765C53.4273 18.3371 52.8833 17.73 52.454 17.0568C52.0247 16.3836 51.7283 15.6822 51.5633 14.9499L55.1766 11.1106V11.1091Z" fill="white"/>
<path d="M67.3785 19.7342C67.3785 20.3497 67.0737 20.6567 66.4626 20.6567H62.6018C62.3054 20.6567 62.0732 20.5736 61.9082 20.4074C61.7432 20.2412 61.6607 20.0173 61.6607 19.7342V1.13769C61.6607 0.523628 61.9739 0.215189 62.6018 0.215189H66.4626C66.7591 0.215189 66.9856 0.294059 67.1436 0.451799C67.3002 0.60954 67.3785 0.8377 67.3785 1.13769V19.7342ZM67.0066 17.2413L67.2051 10.112L71.4379 5.67414C71.6197 5.49105 71.7973 5.36711 71.9707 5.29951C72.1441 5.23331 72.3454 5.19951 72.5776 5.19951H76.9838C77.3963 5.19951 77.6606 5.33331 77.7752 5.59809C77.8899 5.86428 77.7752 6.17976 77.4284 6.54594L71.0184 13.2767L70.5234 13.526L67.0094 17.2399L67.0066 17.2413ZM72.4769 11.1091C72.6908 11.9908 73.0125 12.726 73.4417 13.3147C73.871 13.9048 74.3828 14.3541 74.9757 14.6611C75.57 14.9682 76.2133 15.1386 76.9068 15.1724C77.1865 15.1724 77.3893 15.2682 77.5137 15.4597C77.6368 15.6512 77.6997 15.8794 77.6997 16.1456V19.8356C77.6997 20.1511 77.613 20.3722 77.4396 20.4961C77.2662 20.6201 77.0313 20.6834 76.7349 20.6834C75.6288 20.6665 74.6262 20.4961 73.727 20.1722C72.8279 19.8483 72.0476 19.4159 71.3876 18.8765C70.7276 18.3371 70.1836 17.73 69.7543 17.0568C69.325 16.3836 69.0286 15.6822 68.8636 14.9499L72.4769 11.1106V11.1091Z" fill="white"/>
<path d="M84.5544 20.906C83.3169 20.906 82.2401 20.5989 81.3242 19.9835C80.4083 19.3694 79.6909 18.5047 79.1708 17.3906C78.6506 16.278 78.3905 14.9724 78.3905 13.4767C78.3905 12.164 78.6002 10.9796 79.0211 9.92469C79.442 8.8698 80.0405 7.97265 80.8152 7.23183C81.5899 6.49242 82.531 5.92765 83.6371 5.53612C84.7418 5.14599 85.9961 4.95022 87.3986 4.95022C88.2068 4.95022 89.0528 5.00374 89.9352 5.11219C90.8176 5.22064 91.651 5.36993 92.4354 5.56147C93.2185 5.75301 93.8506 5.97272 94.3288 6.22201C94.5763 6.322 94.7497 6.43749 94.849 6.57129C94.9483 6.70509 94.9972 6.89522 94.9972 7.14451V19.7342C94.9972 20.3497 94.684 20.6567 94.0561 20.6567H90.1953C89.9142 20.6567 89.6919 20.5736 89.5269 20.4074C89.3619 20.2412 89.2794 20.0173 89.2794 19.7342V9.91201C88.9494 9.79652 88.6068 9.7092 88.2516 9.65005C87.8964 9.59231 87.5622 9.56273 87.249 9.56273C86.589 9.56273 86.024 9.6923 85.5542 9.94863C85.0844 10.2064 84.7208 10.581 84.4649 11.0697C84.209 11.5598 84.0817 12.1542 84.0817 12.8527C84.0817 13.833 84.3334 14.6062 84.8369 15.171C85.3403 15.7357 86.0129 16.0188 86.8533 16.0188C87.3972 16.0188 87.8922 15.8864 88.3383 15.6203C88.7844 15.3541 89.1801 14.9639 89.5269 14.4485L89.5017 17.5145C88.5606 19.775 86.9106 20.9046 84.5516 20.9046L84.5544 20.906Z" fill="white"/>
</svg>
